<svg xmlns="http://www.w3.org/2000/svg" viewBox="68.3 52.0 383.8 410.8" width="768" height="822"><defs><linearGradient id="rL-mono" x1="0" y1="1" x2="0.6" y2="0"><stop offset="0" stop-color="#1E293B"></stop><stop offset="0.55" stop-color="#1E293B"></stop><stop offset="1" stop-color="#1E293B"></stop></linearGradient><linearGradient id="rS-mono" x1="0" y1="0" x2="1" y2="1"><stop offset="0" stop-color="#FFFFFF"></stop><stop offset="0.5" stop-color="#D3DCE8"></stop><stop offset="1" stop-color="#8FA0B7"></stop></linearGradient><linearGradient id="rR-mono" x1="0" y1="0" x2="0.4" y2="1"><stop offset="0" stop-color="#1E293B"></stop><stop offset="0.35" stop-color="#1E293B"></stop><stop offset="1" stop-color="#1E293B"></stop></linearGradient></defs><path d="M270 70 C286 58 306 56 324 58 C344 150 372 300 408 392 C420 424 432 444 448 456 C404 462 372 448 350 410 C318 344 292 236 270 130 Z" fill="#1E293B"></path><path d="M72 456 C128 446 176 318 222 172 C236 126 248 86 266 66 C278 56 300 54 324 58 C292 150 262 262 222 360 C196 424 150 470 72 456 Z" fill="#1E293B"></path><polygon points="276,322 287.4,352.4 319.7,353.8 294.4,374 303,405.2 276,387.3 249,405.2 257.6,374 232.3,353.8 264.6,352.4" fill="#1E293B"></polygon></svg>